<svg xmlns="http://www.w3.org/2000/svg" xmlns:xlink="http://www.w3.org/1999/xlink" width="1024" zoomAndPan="magnify" viewBox="0 0 768 767.999994" height="1024" preserveAspectRatio="xMidYMid meet" version="1.0"><defs><g/><clipPath id="4af43413ec"><path d="M 137.527344 143.527344 L 631 143.527344 L 631 624.472656 L 137.527344 624.472656 Z M 137.527344 143.527344 " clip-rule="nonzero"/></clipPath><clipPath id="e66f706ce5"><path d="M 384 143.527344 C 247.878906 143.527344 137.527344 251.191406 137.527344 384 C 137.527344 516.808594 247.878906 624.472656 384 624.472656 C 520.121094 624.472656 630.472656 516.808594 630.472656 384 C 630.472656 251.191406 520.121094 143.527344 384 143.527344 Z M 384 143.527344 " clip-rule="nonzero"/></clipPath><clipPath id="d0fe0bc99c"><path d="M 0.527344 0.527344 L 493 0.527344 L 493 481.472656 L 0.527344 481.472656 Z M 0.527344 0.527344 " clip-rule="nonzero"/></clipPath><clipPath id="ce07b7388e"><path d="M 247 0.527344 C 110.878906 0.527344 0.527344 108.191406 0.527344 241 C 0.527344 373.808594 110.878906 481.472656 247 481.472656 C 383.121094 481.472656 493.472656 373.808594 493.472656 241 C 493.472656 108.191406 383.121094 0.527344 247 0.527344 Z M 247 0.527344 " clip-rule="nonzero"/></clipPath><clipPath id="7427995a78"><rect x="0" width="494" y="0" height="482"/></clipPath><clipPath id="ad5bb896fe"><path d="M 230.398438 265.359375 L 537.898438 265.359375 L 537.898438 350 L 230.398438 350 Z M 230.398438 265.359375 " clip-rule="nonzero"/></clipPath><clipPath id="573a3c246a"><rect x="0" width="452" y="0" height="70"/></clipPath><clipPath id="dcc2dadf3f"><rect x="0" width="318" y="0" height="32"/></clipPath></defs><g clip-path="url(#4af43413ec)"><g clip-path="url(#e66f706ce5)"><g transform="matrix(1, 0, 0, 1, 137, 143)"><g clip-path="url(#7427995a78)"><g clip-path="url(#d0fe0bc99c)"><g clip-path="url(#ce07b7388e)"><path fill="#527575" d="M 0.527344 0.527344 L 492.75 0.527344 L 492.75 481.472656 L 0.527344 481.472656 Z M 0.527344 0.527344 " fill-opacity="1" fill-rule="nonzero"/></g></g></g></g></g></g><g clip-path="url(#ad5bb896fe)"><path fill="#ff751f" d="M 384 278.625 L 537.597656 349.777344 L 384.589844 265.914062 L 384.332031 265.40625 L 384 265.589844 L 383.664062 265.40625 L 383.40625 265.914062 L 230.398438 349.777344 L 384 278.625 " fill-opacity="1" fill-rule="nonzero"/></g><g transform="matrix(1, 0, 0, 1, 158, 348)"><g clip-path="url(#573a3c246a)"><g fill="#ff751f" fill-opacity="1"><g transform="translate(1.25403, 54.432025)"><g><path d="M 20.15625 -31.40625 L 20.15625 0 L 11.484375 0 L 11.484375 -31.40625 L 0.28125 -31.40625 L 0.28125 -39.265625 L 31.34375 -39.265625 L 31.34375 -31.40625 Z M 20.15625 -31.40625 "/></g></g></g><g fill="#ff751f" fill-opacity="1"><g transform="translate(29.651068, 54.432025)"><g><path d="M 33.78125 -19.6875 C 33.78125 -21.726562 33.238281 -23.625 32.15625 -25.375 C 31.082031 -27.125 29.664062 -28.535156 27.90625 -29.609375 C 26.15625 -30.691406 24.265625 -31.234375 22.234375 -31.234375 C 20.222656 -31.234375 18.332031 -30.691406 16.5625 -29.609375 C 14.789062 -28.535156 13.367188 -27.125 12.296875 -25.375 C 11.222656 -23.625 10.6875 -21.726562 10.6875 -19.6875 C 10.6875 -17.6875 11.222656 -15.800781 12.296875 -14.03125 C 13.367188 -12.257812 14.789062 -10.820312 16.5625 -9.71875 C 18.332031 -8.625 20.222656 -8.078125 22.234375 -8.078125 C 24.265625 -8.078125 26.15625 -8.625 27.90625 -9.71875 C 29.664062 -10.820312 31.082031 -12.257812 32.15625 -14.03125 C 33.238281 -15.800781 33.78125 -17.6875 33.78125 -19.6875 Z M 42.4375 -19.625 C 42.4375 -16.9375 41.894531 -14.367188 40.8125 -11.921875 C 39.738281 -9.472656 38.265625 -7.316406 36.390625 -5.453125 C 34.523438 -3.585938 32.378906 -2.113281 29.953125 -1.03125 C 27.535156 0.0390625 24.960938 0.578125 22.234375 0.578125 C 19.535156 0.578125 16.960938 0.0390625 14.515625 -1.03125 C 12.078125 -2.113281 9.921875 -3.585938 8.046875 -5.453125 C 6.179688 -7.316406 4.707031 -9.472656 3.625 -11.921875 C 2.550781 -14.367188 2.015625 -16.9375 2.015625 -19.625 C 2.015625 -22.363281 2.550781 -24.941406 3.625 -27.359375 C 4.707031 -29.785156 6.179688 -31.929688 8.046875 -33.796875 C 9.921875 -35.671875 12.078125 -37.144531 14.515625 -38.21875 C 16.960938 -39.300781 19.535156 -39.84375 22.234375 -39.84375 C 24.960938 -39.84375 27.535156 -39.300781 29.953125 -38.21875 C 32.378906 -37.144531 34.523438 -35.671875 36.390625 -33.796875 C 38.265625 -31.929688 39.738281 -29.785156 40.8125 -27.359375 C 41.894531 -24.941406 42.4375 -22.363281 42.4375 -19.625 Z M 42.4375 -19.625 "/></g></g></g><g fill="#ff751f" fill-opacity="1"><g transform="translate(70.861927, 54.432025)"><g><path d="M 12.125 -14.03125 L 12.125 0 L 3.46875 0 L 3.46875 -39.265625 L 18.1875 -39.265625 C 20.300781 -39.265625 22.269531 -38.734375 24.09375 -37.671875 C 25.925781 -36.609375 27.398438 -35.132812 28.515625 -33.25 C 29.628906 -31.363281 30.1875 -29.171875 30.1875 -26.671875 C 30.1875 -24.015625 29.628906 -21.742188 28.515625 -19.859375 C 27.398438 -17.972656 25.925781 -16.53125 24.09375 -15.53125 C 22.269531 -14.53125 20.300781 -14.03125 18.1875 -14.03125 Z M 16.75 -32.453125 L 12.125 -32.453125 L 12.125 -20.84375 L 16.75 -20.84375 C 18.007812 -20.84375 19.1875 -21.34375 20.28125 -22.34375 C 21.382812 -23.34375 21.9375 -24.785156 21.9375 -26.671875 C 21.9375 -28.484375 21.382812 -29.898438 20.28125 -30.921875 C 19.1875 -31.941406 18.007812 -32.453125 16.75 -32.453125 Z M 16.75 -32.453125 "/></g></g></g><g fill="#ff751f" fill-opacity="1"><g transform="translate(98.681769, 54.432025)"><g><path d="M 20.15625 -31.40625 L 20.15625 0 L 11.484375 0 L 11.484375 -31.40625 L 0.28125 -31.40625 L 0.28125 -39.265625 L 31.34375 -39.265625 L 31.34375 -31.40625 Z M 20.15625 -31.40625 "/></g></g></g><g fill="#ff751f" fill-opacity="1"><g transform="translate(127.078808, 54.432025)"><g><path d="M 12.125 0 L 3.46875 0 L 3.46875 -39.265625 L 12.125 -39.265625 Z M 12.125 0 "/></g></g></g><g fill="#ff751f" fill-opacity="1"><g transform="translate(139.42969, 54.432025)"><g><path d="M 26.21875 -7.859375 L 26.21875 0 L 3.46875 0 L 3.46875 -39.265625 L 26.21875 -39.265625 L 26.21875 -31.40625 L 12.125 -31.40625 L 12.125 -23.609375 L 25.640625 -23.609375 L 25.640625 -15.765625 L 12.125 -15.765625 L 12.125 -7.859375 Z M 26.21875 -7.859375 "/></g></g></g><g fill="#ff751f" fill-opacity="1"><g transform="translate(165.864235, 54.432025)"><g><path d="M 12.125 -14.03125 L 12.125 0 L 3.46875 0 L 3.46875 -39.265625 L 18.1875 -39.265625 C 20.300781 -39.265625 22.269531 -38.734375 24.09375 -37.671875 C 25.925781 -36.609375 27.398438 -35.132812 28.515625 -33.25 C 29.628906 -31.363281 30.1875 -29.171875 30.1875 -26.671875 C 30.1875 -24.472656 29.78125 -22.523438 28.96875 -20.828125 C 28.164062 -19.140625 27.09375 -17.753906 25.75 -16.671875 C 24.40625 -15.597656 22.90625 -14.851562 21.25 -14.4375 L 32.5 0 L 21.53125 0 L 12.1875 -14.03125 Z M 16.75 -32.453125 L 12.125 -32.453125 L 12.125 -20.84375 L 16.75 -20.84375 C 18.007812 -20.84375 19.1875 -21.34375 20.28125 -22.34375 C 21.382812 -23.34375 21.9375 -24.785156 21.9375 -26.671875 C 21.9375 -28.484375 21.382812 -29.898438 20.28125 -30.921875 C 19.1875 -31.941406 18.007812 -32.453125 16.75 -32.453125 Z M 16.75 -32.453125 "/></g></g></g><g fill="#ff751f" fill-opacity="1"><g transform="translate(194.43443, 54.432025)"><g/></g></g><g fill="#ff751f" fill-opacity="1"><g transform="translate(205.630922, 54.432025)"><g><path d="M 12.125 -14.03125 L 12.125 0 L 3.46875 0 L 3.46875 -39.265625 L 18.1875 -39.265625 C 20.300781 -39.265625 22.269531 -38.734375 24.09375 -37.671875 C 25.925781 -36.609375 27.398438 -35.132812 28.515625 -33.25 C 29.628906 -31.363281 30.1875 -29.171875 30.1875 -26.671875 C 30.1875 -24.472656 29.78125 -22.523438 28.96875 -20.828125 C 28.164062 -19.140625 27.09375 -17.753906 25.75 -16.671875 C 24.40625 -15.597656 22.90625 -14.851562 21.25 -14.4375 L 32.5 0 L 21.53125 0 L 12.1875 -14.03125 Z M 16.75 -32.453125 L 12.125 -32.453125 L 12.125 -20.84375 L 16.75 -20.84375 C 18.007812 -20.84375 19.1875 -21.34375 20.28125 -22.34375 C 21.382812 -23.34375 21.9375 -24.785156 21.9375 -26.671875 C 21.9375 -28.484375 21.382812 -29.898438 20.28125 -30.921875 C 19.1875 -31.941406 18.007812 -32.453125 16.75 -32.453125 Z M 16.75 -32.453125 "/></g></g></g><g fill="#ff751f" fill-opacity="1"><g transform="translate(234.201117, 54.432025)"><g><path d="M 33.78125 -19.6875 C 33.78125 -21.726562 33.238281 -23.625 32.15625 -25.375 C 31.082031 -27.125 29.664062 -28.535156 27.90625 -29.609375 C 26.15625 -30.691406 24.265625 -31.234375 22.234375 -31.234375 C 20.222656 -31.234375 18.332031 -30.691406 16.5625 -29.609375 C 14.789062 -28.535156 13.367188 -27.125 12.296875 -25.375 C 11.222656 -23.625 10.6875 -21.726562 10.6875 -19.6875 C 10.6875 -17.6875 11.222656 -15.800781 12.296875 -14.03125 C 13.367188 -12.257812 14.789062 -10.820312 16.5625 -9.71875 C 18.332031 -8.625 20.222656 -8.078125 22.234375 -8.078125 C 24.265625 -8.078125 26.15625 -8.625 27.90625 -9.71875 C 29.664062 -10.820312 31.082031 -12.257812 32.15625 -14.03125 C 33.238281 -15.800781 33.78125 -17.6875 33.78125 -19.6875 Z M 42.4375 -19.625 C 42.4375 -16.9375 41.894531 -14.367188 40.8125 -11.921875 C 39.738281 -9.472656 38.265625 -7.316406 36.390625 -5.453125 C 34.523438 -3.585938 32.378906 -2.113281 29.953125 -1.03125 C 27.535156 0.0390625 24.960938 0.578125 22.234375 0.578125 C 19.535156 0.578125 16.960938 0.0390625 14.515625 -1.03125 C 12.078125 -2.113281 9.921875 -3.585938 8.046875 -5.453125 C 6.179688 -7.316406 4.707031 -9.472656 3.625 -11.921875 C 2.550781 -14.367188 2.015625 -16.9375 2.015625 -19.625 C 2.015625 -22.363281 2.550781 -24.941406 3.625 -27.359375 C 4.707031 -29.785156 6.179688 -31.929688 8.046875 -33.796875 C 9.921875 -35.671875 12.078125 -37.144531 14.515625 -38.21875 C 16.960938 -39.300781 19.535156 -39.84375 22.234375 -39.84375 C 24.960938 -39.84375 27.535156 -39.300781 29.953125 -38.21875 C 32.378906 -37.144531 34.523438 -35.671875 36.390625 -33.796875 C 38.265625 -31.929688 39.738281 -29.785156 40.8125 -27.359375 C 41.894531 -24.941406 42.4375 -22.363281 42.4375 -19.625 Z M 42.4375 -19.625 "/></g></g></g><g fill="#ff751f" fill-opacity="1"><g transform="translate(275.411976, 54.432025)"><g><path d="M 33.78125 -19.6875 C 33.78125 -21.726562 33.238281 -23.625 32.15625 -25.375 C 31.082031 -27.125 29.664062 -28.535156 27.90625 -29.609375 C 26.15625 -30.691406 24.265625 -31.234375 22.234375 -31.234375 C 20.222656 -31.234375 18.332031 -30.691406 16.5625 -29.609375 C 14.789062 -28.535156 13.367188 -27.125 12.296875 -25.375 C 11.222656 -23.625 10.6875 -21.726562 10.6875 -19.6875 C 10.6875 -17.6875 11.222656 -15.800781 12.296875 -14.03125 C 13.367188 -12.257812 14.789062 -10.820312 16.5625 -9.71875 C 18.332031 -8.625 20.222656 -8.078125 22.234375 -8.078125 C 24.265625 -8.078125 26.15625 -8.625 27.90625 -9.71875 C 29.664062 -10.820312 31.082031 -12.257812 32.15625 -14.03125 C 33.238281 -15.800781 33.78125 -17.6875 33.78125 -19.6875 Z M 42.4375 -19.625 C 42.4375 -16.9375 41.894531 -14.367188 40.8125 -11.921875 C 39.738281 -9.472656 38.265625 -7.316406 36.390625 -5.453125 C 34.523438 -3.585938 32.378906 -2.113281 29.953125 -1.03125 C 27.535156 0.0390625 24.960938 0.578125 22.234375 0.578125 C 19.535156 0.578125 16.960938 0.0390625 14.515625 -1.03125 C 12.078125 -2.113281 9.921875 -3.585938 8.046875 -5.453125 C 6.179688 -7.316406 4.707031 -9.472656 3.625 -11.921875 C 2.550781 -14.367188 2.015625 -16.9375 2.015625 -19.625 C 2.015625 -22.363281 2.550781 -24.941406 3.625 -27.359375 C 4.707031 -29.785156 6.179688 -31.929688 8.046875 -33.796875 C 9.921875 -35.671875 12.078125 -37.144531 14.515625 -38.21875 C 16.960938 -39.300781 19.535156 -39.84375 22.234375 -39.84375 C 24.960938 -39.84375 27.535156 -39.300781 29.953125 -38.21875 C 32.378906 -37.144531 34.523438 -35.671875 36.390625 -33.796875 C 38.265625 -31.929688 39.738281 -29.785156 40.8125 -27.359375 C 41.894531 -24.941406 42.4375 -22.363281 42.4375 -19.625 Z M 42.4375 -19.625 "/></g></g></g><g fill="#ff751f" fill-opacity="1"><g transform="translate(316.622835, 54.432025)"><g><path d="M 25.640625 -15.765625 L 12.125 -15.765625 L 12.125 0 L 3.46875 0 L 3.46875 -39.265625 L 26.21875 -39.265625 L 26.21875 -31.40625 L 12.125 -31.40625 L 12.125 -23.609375 L 25.640625 -23.609375 Z M 25.640625 -15.765625 "/></g></g></g><g fill="#ff751f" fill-opacity="1"><g transform="translate(342.480185, 54.432025)"><g/></g></g><g fill="#ff751f" fill-opacity="1"><g transform="translate(353.676677, 54.432025)"><g><path d="M 31.8125 -13.34375 L 41.453125 -13.34375 C 40.566406 -10.644531 39.179688 -8.242188 37.296875 -6.140625 C 35.410156 -4.046875 33.175781 -2.398438 30.59375 -1.203125 C 28.019531 -0.015625 25.234375 0.578125 22.234375 0.578125 C 19.460938 0.578125 16.851562 0.0546875 14.40625 -0.984375 C 11.957031 -2.023438 9.800781 -3.476562 7.9375 -5.34375 C 6.070312 -7.207031 4.617188 -9.359375 3.578125 -11.796875 C 2.535156 -14.242188 2.015625 -16.851562 2.015625 -19.625 C 2.015625 -22.394531 2.535156 -25.003906 3.578125 -27.453125 C 4.617188 -29.898438 6.070312 -32.054688 7.9375 -33.921875 C 9.800781 -35.785156 11.957031 -37.238281 14.40625 -38.28125 C 16.851562 -39.320312 19.460938 -39.84375 22.234375 -39.84375 C 25.234375 -39.84375 28.007812 -39.242188 30.5625 -38.046875 C 33.125 -36.847656 35.347656 -35.21875 37.234375 -33.15625 C 39.117188 -31.101562 40.503906 -28.726562 41.390625 -26.03125 L 31.75 -26.03125 C 30.945312 -27.800781 29.660156 -29.195312 27.890625 -30.21875 C 26.117188 -31.238281 24.234375 -31.75 22.234375 -31.75 C 20.109375 -31.75 18.179688 -31.203125 16.453125 -30.109375 C 14.722656 -29.015625 13.347656 -27.550781 12.328125 -25.71875 C 11.304688 -23.894531 10.796875 -21.863281 10.796875 -19.625 C 10.796875 -17.394531 11.304688 -15.363281 12.328125 -13.53125 C 13.347656 -11.707031 14.722656 -10.242188 16.453125 -9.140625 C 18.179688 -8.046875 20.109375 -7.5 22.234375 -7.5 C 24.265625 -7.5 26.164062 -8.035156 27.9375 -9.109375 C 29.707031 -10.191406 31 -11.601562 31.8125 -13.34375 Z M 31.8125 -13.34375 "/></g></g></g><g fill="#ff751f" fill-opacity="1"><g transform="translate(393.329105, 54.432025)"><g><path d="M 33.78125 -19.6875 C 33.78125 -21.726562 33.238281 -23.625 32.15625 -25.375 C 31.082031 -27.125 29.664062 -28.535156 27.90625 -29.609375 C 26.15625 -30.691406 24.265625 -31.234375 22.234375 -31.234375 C 20.222656 -31.234375 18.332031 -30.691406 16.5625 -29.609375 C 14.789062 -28.535156 13.367188 -27.125 12.296875 -25.375 C 11.222656 -23.625 10.6875 -21.726562 10.6875 -19.6875 C 10.6875 -17.6875 11.222656 -15.800781 12.296875 -14.03125 C 13.367188 -12.257812 14.789062 -10.820312 16.5625 -9.71875 C 18.332031 -8.625 20.222656 -8.078125 22.234375 -8.078125 C 24.265625 -8.078125 26.15625 -8.625 27.90625 -9.71875 C 29.664062 -10.820312 31.082031 -12.257812 32.15625 -14.03125 C 33.238281 -15.800781 33.78125 -17.6875 33.78125 -19.6875 Z M 42.4375 -19.625 C 42.4375 -16.9375 41.894531 -14.367188 40.8125 -11.921875 C 39.738281 -9.472656 38.265625 -7.316406 36.390625 -5.453125 C 34.523438 -3.585938 32.378906 -2.113281 29.953125 -1.03125 C 27.535156 0.0390625 24.960938 0.578125 22.234375 0.578125 C 19.535156 0.578125 16.960938 0.0390625 14.515625 -1.03125 C 12.078125 -2.113281 9.921875 -3.585938 8.046875 -5.453125 C 6.179688 -7.316406 4.707031 -9.472656 3.625 -11.921875 C 2.550781 -14.367188 2.015625 -16.9375 2.015625 -19.625 C 2.015625 -22.363281 2.550781 -24.941406 3.625 -27.359375 C 4.707031 -29.785156 6.179688 -31.929688 8.046875 -33.796875 C 9.921875 -35.671875 12.078125 -37.144531 14.515625 -38.21875 C 16.960938 -39.300781 19.535156 -39.84375 22.234375 -39.84375 C 24.960938 -39.84375 27.535156 -39.300781 29.953125 -38.21875 C 32.378906 -37.144531 34.523438 -35.671875 36.390625 -33.796875 C 38.265625 -31.929688 39.738281 -29.785156 40.8125 -27.359375 C 41.894531 -24.941406 42.4375 -22.363281 42.4375 -19.625 Z M 42.4375 -19.625 "/></g></g></g><g fill="#ff751f" fill-opacity="1"><g transform="translate(434.539987, 54.432025)"><g><path d="M 3 -4.453125 C 3 -5.867188 3.488281 -7.066406 4.46875 -8.046875 C 5.457031 -9.035156 6.660156 -9.53125 8.078125 -9.53125 C 9.460938 -9.53125 10.65625 -9.035156 11.65625 -8.046875 C 12.65625 -7.066406 13.15625 -5.867188 13.15625 -4.453125 C 13.15625 -3.054688 12.65625 -1.867188 11.65625 -0.890625 C 10.65625 0.0859375 9.460938 0.578125 8.078125 0.578125 C 6.660156 0.578125 5.457031 0.0859375 4.46875 -0.890625 C 3.488281 -1.867188 3 -3.054688 3 -4.453125 Z M 3 -4.453125 "/></g></g></g></g></g><g transform="matrix(1, 0, 0, 1, 227, 440)"><g clip-path="url(#dcc2dadf3f)"><g fill="#ff751f" fill-opacity="1"><g transform="translate(1.218994, 23.580939)"><g><path d="M 6.671875 -8.109375 C 3.160156 -8.910156 1.40625 -10.40625 1.40625 -12.59375 C 1.40625 -14.21875 1.972656 -15.429688 3.109375 -16.234375 C 4.234375 -17.023438 5.550781 -17.421875 7.0625 -17.421875 C 10.414062 -17.421875 12.40625 -16.175781 13.03125 -13.6875 L 11.109375 -13.6875 C 10.773438 -15.164062 9.425781 -15.90625 7.0625 -15.90625 C 5.414062 -15.90625 4.265625 -15.414062 3.609375 -14.4375 C 3.359375 -14.070312 3.234375 -13.609375 3.234375 -13.046875 C 3.234375 -11.992188 3.804688 -11.179688 4.953125 -10.609375 C 5.484375 -10.316406 6.628906 -9.945312 8.390625 -9.5 C 10.140625 -9.039062 11.410156 -8.535156 12.203125 -7.984375 C 13.296875 -7.203125 13.84375 -6.113281 13.84375 -4.71875 C 13.84375 -2.988281 13.160156 -1.675781 11.796875 -0.78125 C 10.648438 -0.0390625 9.234375 0.328125 7.546875 0.328125 C 3.742188 0.328125 1.539062 -1.117188 0.9375 -4.015625 L 3.03125 -4.015625 C 3.351562 -2.191406 4.859375 -1.28125 7.546875 -1.28125 C 9.460938 -1.28125 10.800781 -1.8125 11.5625 -2.875 C 11.863281 -3.300781 12.015625 -3.875 12.015625 -4.59375 C 12.015625 -5.300781 11.738281 -5.882812 11.1875 -6.34375 C 10.394531 -6.976562 8.890625 -7.566406 6.671875 -8.109375 Z M 6.671875 -8.109375 "/></g></g></g><g fill="#ff751f" fill-opacity="1"><g transform="translate(19.701384, 23.580939)"><g><path d="M 0.5 -15.578125 L 0.5 -17.21875 L 10.609375 -17.21875 L 10.609375 -15.578125 L 6.4375 -15.578125 L 6.4375 -0.046875 L 4.671875 -0.046875 L 4.671875 -15.578125 Z M 0.5 -15.578125 "/></g></g></g><g fill="#ff751f" fill-opacity="1"><g transform="translate(34.800524, 23.580939)"><g><path d="M 3.65625 -8.484375 L 7.65625 -8.484375 C 8.644531 -8.484375 9.457031 -8.820312 10.09375 -9.5 C 10.75 -10.1875 11.078125 -11.035156 11.078125 -12.046875 C 11.078125 -13.035156 10.769531 -13.859375 10.15625 -14.515625 C 9.53125 -15.160156 8.695312 -15.484375 7.65625 -15.484375 L 3.65625 -15.484375 Z M 12.859375 -12 C 12.859375 -10.5 12.328125 -9.25 11.265625 -8.25 C 10.316406 -7.375 9.179688 -6.894531 7.859375 -6.8125 L 13.125 0 L 10.75 0 L 5.734375 -6.796875 L 3.65625 -6.796875 L 3.65625 0 L 1.890625 0 L 1.890625 -17.171875 L 7.390625 -17.171875 C 8.929688 -17.171875 10.222656 -16.691406 11.265625 -15.734375 C 12.328125 -14.722656 12.859375 -13.476562 12.859375 -12 Z M 12.859375 -12 "/></g></g></g><g fill="#ff751f" fill-opacity="1"><g transform="translate(52.530992, 23.580939)"><g><path d="M 12.09375 0 L 1.890625 0 L 1.890625 -17.171875 L 12.09375 -17.171875 L 12.09375 -15.53125 L 3.65625 -15.53125 L 3.65625 -9.421875 L 11.84375 -9.421875 L 11.84375 -7.75 L 3.65625 -7.75 L 3.65625 -1.640625 L 12.09375 -1.640625 Z M 12.09375 0 "/></g></g></g><g fill="#ff751f" fill-opacity="1"><g transform="translate(70.508421, 23.580939)"><g><path d="M 3.65625 -12.65625 L 3.65625 0 L 1.890625 0 L 1.890625 -18.25 L 11.546875 -4.546875 L 11.546875 -17.171875 L 13.3125 -17.171875 L 13.3125 1.0625 Z M 3.65625 -12.65625 "/></g></g></g><g fill="#ff751f" fill-opacity="1"><g transform="translate(89.697757, 23.580939)"><g><path d="M 18.84375 -8.03125 L 18.65625 -6.96875 C 18.289062 -4.882812 17.273438 -3.164062 15.609375 -1.8125 C 13.941406 -0.46875 12.0625 0.203125 9.96875 0.203125 C 8.757812 0.203125 7.617188 -0.03125 6.546875 -0.5 C 5.460938 -0.957031 4.523438 -1.59375 3.734375 -2.40625 C 2.929688 -3.1875 2.300781 -4.117188 1.84375 -5.203125 C 1.375 -6.273438 1.140625 -7.425781 1.140625 -8.65625 C 1.140625 -9.875 1.375 -11.019531 1.84375 -12.09375 C 2.300781 -13.164062 2.929688 -14.109375 3.734375 -14.921875 C 4.523438 -15.710938 5.460938 -16.34375 6.546875 -16.8125 C 7.617188 -17.269531 8.703125 -17.5 9.796875 -17.5 C 11.847656 -17.5 13.65625 -16.914062 15.21875 -15.75 C 16.800781 -14.59375 17.878906 -13.0625 18.453125 -11.15625 L 16.59375 -11.15625 C 16.050781 -12.550781 15.179688 -13.664062 13.984375 -14.5 C 12.773438 -15.320312 11.4375 -15.734375 9.96875 -15.734375 C 8.019531 -15.734375 6.351562 -15.039062 4.96875 -13.65625 C 3.59375 -12.28125 2.90625 -10.613281 2.90625 -8.65625 C 2.90625 -6.71875 3.59375 -5.050781 4.96875 -3.65625 C 6.332031 -2.257812 8 -1.5625 9.96875 -1.5625 C 11.519531 -1.5625 12.9375 -2.007812 14.21875 -2.90625 C 15.476562 -3.8125 16.359375 -5.003906 16.859375 -6.484375 L 9.890625 -6.484375 L 9.890625 -8.03125 Z M 18.84375 -8.03125 "/></g></g></g><g fill="#ff751f" fill-opacity="1"><g transform="translate(113.658967, 23.580939)"><g><path d="M 0.5 -15.578125 L 0.5 -17.21875 L 10.609375 -17.21875 L 10.609375 -15.578125 L 6.4375 -15.578125 L 6.4375 -0.046875 L 4.671875 -0.046875 L 4.671875 -15.578125 Z M 0.5 -15.578125 "/></g></g></g><g fill="#ff751f" fill-opacity="1"><g transform="translate(128.758107, 23.580939)"><g><path d="M 3.65625 0 L 1.890625 0 L 1.890625 -17.171875 L 3.65625 -17.171875 L 3.65625 -9.4375 L 11.46875 -9.4375 L 11.46875 -17.171875 L 13.234375 -17.171875 L 13.234375 0 L 11.46875 0 L 11.46875 -7.671875 L 3.65625 -7.671875 Z M 3.65625 0 "/></g></g></g><g fill="#ff751f" fill-opacity="1"><g transform="translate(147.871692, 23.580939)"><g/></g></g><g fill="#ff751f" fill-opacity="1"><g transform="translate(158.678676, 23.580939)"><g><path d="M 4.671875 -6.3125 L 10.90625 -6.3125 L 7.796875 -14.21875 Z M 15.328125 0 L 13.40625 0 L 11.5625 -4.671875 L 4.015625 -4.671875 L 2.171875 0 L 0.25 0 L 7.796875 -18.359375 Z M 15.328125 0 "/></g></g></g><g fill="#ff751f" fill-opacity="1"><g transform="translate(178.246715, 23.580939)"><g><path d="M 13.109375 -4.796875 C 13.109375 -4.085938 12.945312 -3.414062 12.625 -2.78125 C 12.300781 -2.132812 11.875 -1.613281 11.34375 -1.21875 C 10.289062 -0.40625 8.890625 0 7.140625 0 L 1.890625 0 L 1.890625 -17.171875 L 6.546875 -17.171875 C 9.046875 -17.171875 10.675781 -16.394531 11.4375 -14.84375 C 11.707031 -14.289062 11.84375 -13.726562 11.84375 -13.15625 C 11.84375 -12.582031 11.800781 -12.132812 11.71875 -11.8125 C 11.613281 -11.476562 11.476562 -11.160156 11.3125 -10.859375 C 10.925781 -10.203125 10.429688 -9.738281 9.828125 -9.46875 C 10.835938 -9.195312 11.632812 -8.660156 12.21875 -7.859375 C 12.8125 -7.023438 13.109375 -6.003906 13.109375 -4.796875 Z M 10.078125 -12.875 C 10.078125 -14.613281 8.898438 -15.484375 6.546875 -15.484375 L 3.65625 -15.484375 L 3.65625 -10.125 L 7.046875 -10.125 C 7.953125 -10.125 8.679688 -10.351562 9.234375 -10.8125 C 9.796875 -11.257812 10.078125 -11.945312 10.078125 -12.875 Z M 11.34375 -5.125 C 11.34375 -5.632812 11.25 -6.082031 11.0625 -6.46875 C 10.851562 -6.851562 10.597656 -7.1875 10.296875 -7.46875 C 9.628906 -8.0625 8.835938 -8.359375 7.921875 -8.359375 L 3.65625 -8.359375 L 3.65625 -1.6875 L 7.65625 -1.6875 C 8.726562 -1.6875 9.609375 -2 10.296875 -2.625 C 10.992188 -3.257812 11.34375 -4.09375 11.34375 -5.125 Z M 11.34375 -5.125 "/></g></g></g><g fill="#ff751f" fill-opacity="1"><g transform="translate(195.845417, 23.580939)"><g><path d="M 17.015625 -8.640625 C 17.015625 -10.578125 16.328125 -12.234375 14.953125 -13.609375 C 13.566406 -14.992188 11.898438 -15.6875 9.953125 -15.6875 C 8.015625 -15.6875 6.351562 -14.992188 4.96875 -13.609375 C 3.59375 -12.234375 2.90625 -10.578125 2.90625 -8.640625 C 2.90625 -6.679688 3.59375 -5.015625 4.96875 -3.640625 C 6.351562 -2.253906 8.015625 -1.5625 9.953125 -1.5625 C 11.898438 -1.5625 13.566406 -2.253906 14.953125 -3.640625 C 16.328125 -5.015625 17.015625 -6.679688 17.015625 -8.640625 Z M 18.78125 -8.640625 C 18.78125 -7.421875 18.554688 -6.273438 18.109375 -5.203125 C 17.628906 -4.117188 16.992188 -3.1875 16.203125 -2.40625 C 15.398438 -1.59375 14.457031 -0.957031 13.375 -0.5 C 12.300781 -0.03125 11.160156 0.203125 9.953125 0.203125 C 8.734375 0.203125 7.597656 -0.03125 6.546875 -0.5 C 5.460938 -0.957031 4.523438 -1.59375 3.734375 -2.40625 C 2.929688 -3.1875 2.300781 -4.117188 1.84375 -5.203125 C 1.375 -6.273438 1.140625 -7.421875 1.140625 -8.640625 C 1.140625 -9.847656 1.375 -10.988281 1.84375 -12.0625 C 2.300781 -13.144531 2.929688 -14.082031 3.734375 -14.875 C 4.523438 -15.664062 5.460938 -16.296875 6.546875 -16.765625 C 7.597656 -17.222656 8.734375 -17.453125 9.953125 -17.453125 C 11.160156 -17.453125 12.300781 -17.222656 13.375 -16.765625 C 14.457031 -16.296875 15.398438 -15.664062 16.203125 -14.875 C 16.992188 -14.082031 17.628906 -13.144531 18.109375 -12.0625 C 18.554688 -10.988281 18.78125 -9.847656 18.78125 -8.640625 Z M 18.78125 -8.640625 "/></g></g></g><g fill="#ff751f" fill-opacity="1"><g transform="translate(219.756119, 23.580939)"><g><path d="M 8.0625 1.03125 L 0.25 -17.171875 L 2.171875 -17.171875 L 8.0625 -3.328125 L 13.90625 -17.171875 L 15.828125 -17.171875 Z M 8.0625 1.03125 "/></g></g></g><g fill="#ff751f" fill-opacity="1"><g transform="translate(239.829119, 23.580939)"><g><path d="M 12.09375 0 L 1.890625 0 L 1.890625 -17.171875 L 12.09375 -17.171875 L 12.09375 -15.53125 L 3.65625 -15.53125 L 3.65625 -9.421875 L 11.84375 -9.421875 L 11.84375 -7.75 L 3.65625 -7.75 L 3.65625 -1.640625 L 12.09375 -1.640625 Z M 12.09375 0 "/></g></g></g><g fill="#ff751f" fill-opacity="1"><g transform="translate(257.806548, 23.580939)"><g/></g></g><g fill="#ff751f" fill-opacity="1"><g transform="translate(268.613532, 23.580939)"><g><path d="M 4.671875 -6.3125 L 10.90625 -6.3125 L 7.796875 -14.21875 Z M 15.328125 0 L 13.40625 0 L 11.5625 -4.671875 L 4.015625 -4.671875 L 2.171875 0 L 0.25 0 L 7.796875 -18.359375 Z M 15.328125 0 "/></g></g></g><g fill="#ff751f" fill-opacity="1"><g transform="translate(288.18157, 23.580939)"><g><path d="M 3.65625 -1.765625 L 9.796875 -1.765625 L 9.796875 0 L 1.890625 0 L 1.890625 -17.171875 L 3.65625 -17.171875 Z M 3.65625 -1.765625 "/></g></g></g><g fill="#ff751f" fill-opacity="1"><g transform="translate(302.472773, 23.580939)"><g><path d="M 3.65625 -1.765625 L 9.796875 -1.765625 L 9.796875 0 L 1.890625 0 L 1.890625 -17.171875 L 3.65625 -17.171875 Z M 3.65625 -1.765625 "/></g></g></g></g></g></svg>